<svg id="Layer_2" data-name="Layer 2" xmlns="http://www.w3.org/2000/svg" viewBox="0 500 2000 2000"><defs><style>.cls-1{font-size:105.47px;font-family:Roboto-Black, Roboto;letter-spacing:0.1em;}.cls-2{letter-spacing:0.08em;}</style></defs><title>Draft-LOGO</title><circle cx="555.67" cy="862.54" r="61.68"/><circle cx="846.46" cy="631.53" r="53.18"/><circle cx="857.67" cy="759.47" r="43.57"/><circle cx="814.09" cy="886.3" r="64.06"/><circle cx="793.28" cy="1121.73" r="60.2"/><circle cx="744.92" cy="992.93" r="42.56"/><circle cx="677.36" cy="1051.89" r="30.1"/><circle cx="562.45" cy="1014.12" r="24.44"/><circle cx="570.28" cy="957.93" r="22.56"/><circle cx="703.84" cy="937.55" r="16.44"/><circle cx="517.83" cy="958.64" r="15.95"/><circle cx="480.85" cy="913.58" r="15.95"/><circle cx="998.48" cy="631.53" r="57.35"/><circle cx="1008.45" cy="860.39" r="97.56"/><circle cx="984.92" cy="1088.48" r="64.07"/><circle cx="1135.89" cy="947.91" r="24.43"/><circle cx="1423.79" cy="1223.65" r="24.43"/><circle cx="1135.89" cy="1084.5" r="60.09"/><circle cx="1309.73" cy="1235.22" r="60.09"/><circle cx="1189.55" cy="1197.98" r="25.67"/><circle cx="1176.58" cy="1260.88" r="25.67"/><circle cx="1221.65" cy="1302.38" r="31.35"/><circle cx="1246.32" cy="1383.21" r="17.35"/><circle cx="1080.99" cy="1172.31" r="25.67"/><circle cx="1249.64" cy="1142.03" r="33.04"/><circle cx="878.16" cy="1018.78" r="39.89"/><circle cx="885.88" cy="1187.9" r="27.03"/><circle cx="1048.99" cy="992.93" r="25.62"/><circle cx="895.33" cy="1115.52" r="13.87"/><circle cx="902" cy="943.3" r="19.84"/><circle cx="1235.98" cy="900.6" r="61.33"/><circle cx="1443.03" cy="830.53" r="61.33"/><circle cx="1353.92" cy="1016.17" r="48.85"/><circle cx="1453.65" cy="1129.39" r="38.31"/><circle cx="1315.61" cy="1129.39" r="20.39"/><circle cx="1514.61" cy="952.55" r="48.85"/><circle cx="1491.97" cy="1049.98" r="22.64"/><circle cx="1441.68" cy="996.53" r="11.97"/><circle cx="1430.29" cy="1047.5" r="17.52"/><circle cx="1369.82" cy="1096.96" r="21.63"/><circle cx="1361.07" cy="903.69" r="22"/><circle cx="1409.62" cy="942.69" r="14.16"/><circle cx="1204.47" cy="1006.59" r="29.82"/><circle cx="1311.57" cy="789.6" r="25.89"/><circle cx="1287.73" cy="653.85" r="18.31"/><circle cx="1253.12" cy="1063.35" r="33.61"/><circle cx="1358.64" cy="692.86" r="47.07"/><circle cx="1264.5" cy="598.71" r="23.23"/><circle cx="1195.94" cy="597.41" r="11.88"/><circle cx="1160.32" cy="830.53" r="11.88"/><circle cx="1381.7" cy="1144.59" r="11.88"/><circle cx="1048.99" cy="704.74" r="11.88"/><circle cx="1179.1" cy="706.29" r="77.89"/><circle cx="1104.36" cy="585.9" r="37.37"/><circle cx="632.27" cy="734.56" r="38.55"/><circle cx="555.67" cy="770.06" r="17.47"/><circle cx="622.38" cy="801.12" r="14.53"/><circle cx="755.2" cy="773.11" r="32.29"/><circle cx="685.81" cy="852.47" r="45.96"/><circle cx="633.5" cy="975.84" r="38.29"/><circle cx="727.43" cy="659.26" r="33.71"/><circle cx="700.2" cy="731.08" r="15.19"/><circle cx="928.21" cy="711.07" r="18.79"/><circle cx="936.33" cy="571.39" r="18.79"/><text class="cls-1" transform="translate(490.65 1307.79)">THE</text><text class="cls-1" transform="translate(490.65 1423.92)">BRAINE<tspan class="cls-2" x="436.86" y="0">R</tspan><tspan x="513.74" y="0">Y</tspan></text></svg>
