<?xml version="1.0" encoding="UTF-8"?>
<svg style="position:relative;top:29px;padding-bottom: 35px;"width="174px" height="120px" viewBox="0 0 174 120" version="1.1" xmlns="http://www.w3.org/2000/svg" xmlns:xlink="http://www.w3.org/1999/xlink">
    <!-- Generator: Sketch 50.2 (55047) - http://www.bohemiancoding.com/sketch -->
    <title>Group 2</title>
    <desc>Created with Sketch.</desc>
    <defs></defs>
    <g id="Page-1" stroke="none" stroke-width="1" fill="none" fill-rule="evenodd">
        <g id="Group-2">
            <rect id="Rectangle-4" stroke="#E3E3E3" fill="#FFFFFF" x="0.5" y="15.5" width="173" height="104" rx="13"></rect>
            <path d="M13,15 L161,15 C168.179702,15 174,20.8202983 174,28 L174,39 L0,39 L3.55271368e-15,28 C2.6734538e-15,20.8202983 5.82029825,15 13,15 Z" id="Rectangle-5" fill="#CC333F"></path>
            <ellipse id="Oval" fill="#FFFFFF" cx="154.5" cy="27" rx="6.5" ry="6"></ellipse>
            <ellipse id="Oval" fill="#FFFFFF" cx="22.5" cy="27" rx="6.5" ry="6"></ellipse>
            <rect id="Rectangle-6" fill="#FFFFFF" x="60" y="23" width="58" height="9" rx="4.5"></rect>
            <rect id="Rectangle-7" fill="#DDDDDD" x="75" y="2" width="28" height="27" rx="5"></rect>
            <path d="M80,0 L98,0 C100.761424,-5.07265313e-16 103,2.23857625 103,5 L103,12 L75,12 L75,5 C75,2.23857625 77.2385763,2.28362215e-15 80,1.77635684e-15 Z" id="Rectangle-7" fill="#737070"></path>
            <path d="M1,38 L166,119 L11,119 C4.33333333,117.666667 1,114 1,108 C1,102 1,78.6666667 1,38 Z" id="Triangle-2" fill-opacity="0.242357337" fill="#E0E0E0"></path>
            <text id="VIP-Membership" font-family="AmericanTypewriter-Bold, American Typewriter" font-size="20" font-weight="bold" fill="#CC333F">
                <tspan x="69.7" y="68">VIP</tspan>
                <tspan x="108.3" y="68" font-size="17"> </tspan>
                <tspan x="34.838" y="93" font-size="17">Membership</tspan>
            </text>
        </g>
    </g>
</svg>
